<svg width="100" height="100" viewBox="0 0 24 24" fill="none" xmlns="http://www.w3.org/2000/svg">
  <!-- Outer Pin Shape -->
  <path fill="red" d="M12 2C7.03 2 3 6.03 3 11c0 4.41 3.72 8.4 7.44 11.36a1.5 1.5 0 0 0 1.72 0C17.28 19.4 21 15.41 21 11c0-4.97-4.03-9-9-9zM12 18c-3.87 0-7-3.13-7-7s3.13-7 7-7 7 3.13 7 7-3.13 7-7 7z"/>
  
  <!-- Inner White Circle -->
  <circle cx="12" cy="11" r="5.5" fill="white" stroke="red" stroke-width="1"/>
  
  <!-- END Text -->
  <text x="50%" y="50%" text-anchor="middle" fill="red" font-size="5" font-family="Arial" dy=".3em" font-weight="bold">END</text>
</svg>
